<svg xmlns="http://www.w3.org/2000/svg" width="1600" height="400" viewBox="0 0 1600 400" role="img" aria-label="Berkay Celik - Mechanical Engineering, Robotics and Automation">
  <defs>
    <linearGradient id="bg" x1="0" y1="0" x2="1" y2="1">
      <stop offset="0" stop-color="#0B0F14"/>
      <stop offset="1" stop-color="#111A24"/>
    </linearGradient>
    <radialGradient id="glow" cx="0.86" cy="0.12" r="0.75">
      <stop offset="0" stop-color="#58A6FF" stop-opacity="0.20"/>
      <stop offset="1" stop-color="#58A6FF" stop-opacity="0"/>
    </radialGradient>
    <pattern id="grid" width="80" height="80" patternUnits="userSpaceOnUse">
      <path d="M80 0H0V80" fill="none" stroke="#8B949E" stroke-opacity="0.07" stroke-width="1"/>
    </pattern>
  </defs>

  <rect width="1600" height="400" fill="url(#bg)"/>
  <rect width="1600" height="400" fill="url(#grid)"/>
  <rect width="1600" height="400" fill="url(#glow)"/>

  <g fill="none" stroke="#58A6FF">
    <circle cx="1322" cy="200" r="58" stroke-opacity="0.40" stroke-width="1.5"/>
    <circle cx="1322" cy="200" r="108" stroke-opacity="0.20" stroke-width="1.5"/>
    <circle cx="1322" cy="200" r="158" stroke-opacity="0.10" stroke-width="1.5"/>
  </g>
  <g fill="#58A6FF">
    <circle cx="1322" cy="142" r="4.5" fill-opacity="0.92"/>
    <circle cx="1430" cy="200" r="3" fill-opacity="0.60"/>
    <circle cx="1214" cy="200" r="3" fill-opacity="0.35"/>
    <circle cx="1322" cy="358" r="3" fill-opacity="0.30"/>
  </g>
  <g stroke="#58A6FF" stroke-opacity="0.30" stroke-width="1.5">
    <line x1="1322" y1="142" x2="1430" y2="200"/>
    <line x1="1322" y1="142" x2="1214" y2="200"/>
  </g>

  <rect x="118" y="146" width="6" height="104" fill="#58A6FF"/>

  <text x="158" y="192" font-family="ui-sans-serif, -apple-system, 'Segoe UI', Roboto, 'Helvetica Neue', Arial, sans-serif" font-size="78" font-weight="700" fill="#E6EDF3" letter-spacing="-1.5">Berkay Çelik</text>
  <text x="160" y="238" font-family="ui-sans-serif, -apple-system, 'Segoe UI', Roboto, 'Helvetica Neue', Arial, sans-serif" font-size="25" fill="#8B949E" letter-spacing="0.2">Mechanical Engineering · Robotics &amp; Automation · C++ / Python</text>
  <text x="160" y="280" font-family="ui-monospace, SFMono-Regular, Menlo, Consolas, monospace" font-size="20" fill="#58A6FF" fill-opacity="0.9">@BerkayCelk</text>
</svg>
